<?xml version="1.0" encoding="utf-8"?>
<!-- Generator: Adobe Illustrator 27.0.0, SVG Export Plug-In . SVG Version: 6.00 Build 0)  -->
<svg version="1.1" id="Calque_1" xmlns="http://www.w3.org/2000/svg" xmlns:xlink="http://www.w3.org/1999/xlink" x="0px" y="0px"
	 viewBox="0 0 800 800" style="enable-background:new 0 0 800 800;" xml:space="preserve">
<style type="text/css">
	.st0{fill-rule:evenodd;clip-rule:evenodd;fill:#F4AC45;}
</style>
<g id="Icons">
	<g id="Color-" transform="translate(-200.000000, -160.000000)">
		<path id="Facebook" class="st0" d="M627.3,960H244.2c-24.4,0-44.2-19.8-44.2-44.2V204.2c0-24.4,19.8-44.2,44.2-44.2h711.7
			c24.4,0,44.2,19.8,44.2,44.2v711.7c0,24.4-19.8,44.2-44.2,44.2H752V650.2h104l15.6-120.7H752v-77.1c0-35,9.7-58.8,59.8-58.8h63.9
			v-108c-11.1-1.5-49-4.8-93.2-4.8c-92.2,0-155.3,56.3-155.3,159.6v89H523.1v120.7h104.3L627.3,960L627.3,960z"/>
	</g>
</g>
</svg>
