<?xml version="1.0" encoding="utf-8"?>
<!-- Generator: Adobe Illustrator 27.0.0, SVG Export Plug-In . SVG Version: 6.00 Build 0)  -->
<svg version="1.1" id="Calque_1" xmlns="http://www.w3.org/2000/svg" xmlns:xlink="http://www.w3.org/1999/xlink" x="0px" y="0px"
	 viewBox="0 0 800 800" style="enable-background:new 0 0 800 800;" xml:space="preserve">
<style type="text/css">
	.st0{fill:#F4AC45;}
</style>
<circle class="st0" cx="400" cy="400" r="85.7"/>
<path class="st0" d="M628,314.1c-0.3-12.6-0.8-23.6-1.6-33.5c-2-25-5.8-37.9-10.3-46.8c-11-21.5-28.4-39-49.9-50
	c-8.9-4.5-21.8-8.3-46.8-10.3c-25.7-2.1-59-2.1-107.9-2.1h-22.9c-49,0-82.2,0-107.9,2.1c-15.1,1.2-25.8,3.1-33.9,5.4
	c-5.2,1.5-9.4,3.2-12.9,4.9c-21.5,11-39,28.5-50,50c-2,3.9-3.8,8.4-5.4,14.4c-2.1,7.9-3.8,18.2-5,32.4c-0.5,6.1-0.9,12.7-1.2,19.9
	c-0.9,22.7-0.9,50.8-0.9,88v22.9c0,49,0,82.2,2.1,107.9c2,25,5.8,37.9,10.3,46.8c11,21.5,28.5,39,50,49.9c1.1,0.5,2.2,1.1,3.4,1.6
	c8.8,3.8,21.4,6.9,43.4,8.7c9.2,0.8,19.4,1.2,31,1.5c20.6,0.6,45.6,0.6,76.9,0.6h22.9c6.5,0,12.7,0,18.7,0c39,0,66.9-0.3,89.2-2.1
	c22.2-1.8,34.9-5,43.7-8.8c1.1-0.5,2.1-1,3.1-1.5c21.5-11,39-28.4,49.9-49.9c4.6-8.9,8.3-21.8,10.3-46.8c2.1-25.7,2.1-59,2.1-107.9
	v-22.9C628.6,358.4,628.5,334.2,628,314.1z M557.1,199.9c23.7,0,42.9,19.2,42.9,42.9s-19.2,42.9-42.9,42.9
	c-23.7,0-42.9-19.2-42.9-42.9S533.4,199.9,557.1,199.9z M430.2,539.7c-9.7,2.1-19.8,3.2-30.2,3.2c-33.3,0-64-11.4-88.3-30.5
	c-33.2-26.2-54.6-66.8-54.6-112.4c0-78.9,64-142.9,142.9-142.9c38.1,0,72.7,14.9,98.3,39.2c27.5,26,44.6,62.9,44.6,103.7
	c0,3.3-0.1,6.5-0.3,9.7C538.3,473.9,491.5,526.5,430.2,539.7z"/>
<path class="st0" d="M628.6,0H171.4c-5.1,0-10.1,0.2-15,0.7h487.2C638.6,0.2,633.7,0,628.6,0z"/>
<g>
	<path class="st0" d="M740.7,0.7H59C26.8,0.2,0.4,26,0,58.2v684.5c0.4,32.2,26.8,58.1,59,57.7h681.7c32.3,0.4,58.8-25.4,59.3-57.7
		V58.2C799.5,26,773,0.2,740.7,0.7z M685.7,411.4c0,57.5,0,97.8-4,128.8c-2.7,20.7-7.2,37.2-14.7,51.9
		c-16.4,32.3-42.7,58.5-74.9,74.9c-8.8,4.5-18.3,7.9-29,10.5c-33.6,8.2-78.8,8.2-151.7,8.2h-22.9c-72.5,0-117.6,0-151.2-8.1
		c-10.9-2.6-20.5-6.1-29.5-10.6c-32.3-16.4-58.5-42.7-74.9-74.9c-7.2-14-11.6-29.8-14.3-49.2c-4.4-31.3-4.4-72.3-4.4-131.5v-22.9
		c0-82.2,0-129.2,11.7-164.1c2-5.8,4.3-11.4,7-16.6c16.4-32.3,42.7-58.5,74.9-74.9c4.6-2.3,9.4-4.4,14.4-6.2
		c35.1-12.5,82.3-12.5,166.3-12.5h22.9c96,0,144,0,180.7,18.7c32.3,16.4,58.5,42.7,74.9,74.9c18.7,36.7,18.7,84.7,18.7,180.7V411.4z
		"/>
</g>
</svg>
