<?xml version="1.0" encoding="utf-8"?>
<!-- Generator: Adobe Illustrator 27.0.0, SVG Export Plug-In . SVG Version: 6.00 Build 0)  -->
<svg version="1.1" id="Calque_1" xmlns="http://www.w3.org/2000/svg" xmlns:xlink="http://www.w3.org/1999/xlink" x="0px" y="0px"
	 viewBox="0 0 800 800" style="enable-background:new 0 0 800 800;" xml:space="preserve">
<style type="text/css">
	.st0{fill:#F4AC45;}
</style>
<g>
	<path class="st0" d="M681.6,681.6H563.1V496c0-44.3-0.8-101.3-61.7-101.3c-61.7,0-71.2,48.2-71.2,98v188.8H311.7V299.9h113.8v52.2
		h1.6c23.2-39.7,66.3-63.4,112.3-61.7c120.1,0,142.3,79,142.3,181.8L681.6,681.6z M178,247.7c-38,0-68.8-30.8-68.8-68.8
		s30.8-68.8,68.8-68.8s68.8,30.8,68.8,68.8c0,18.2-7.2,35.7-20.1,48.6C213.7,240.5,196.2,247.7,178,247.7 M237.3,681.6H118.6V299.9
		h118.7L237.3,681.6L237.3,681.6z M740.7,0.1H59C26.8-0.3,0.4,25.5,0,57.7v684.5c0.4,32.2,26.8,58.1,59,57.7h681.7
		c32.3,0.4,58.8-25.4,59.3-57.7V57.7C799.5,25.4,773-0.4,740.7,0.1"/>
</g>
</svg>
